<svg version="1.0" xmlns="http://www.w3.org/2000/svg" width="1286.667" height="1286.667" viewBox="0 0 965 965"><path d="M414 373.6c-26.1 1.9-65.1 7.1-95.6 12.8-20.6 3.9-21.7 4.1-25.4 5-1.4.3-10.6 2.4-20.5 4.7-9.9 2.2-22.2 5.2-27.3 6.6-5.1 1.3-10.1 2.6-11 2.8-2.7.5-39.6 11.3-50.2 14.7-31.3 9.9-76.3 26-90.4 32.2-1.7.8-5.1 2.1-7.6 3.1-2.5.9-7.6 3-11.5 4.7-3.8 1.7-7.9 3.4-9 3.8-1.1.5-5.5 2.5-9.8 4.4-4.4 2-8.3 3.6-8.8 3.6s-.9.4-.9.9c0 .6-7 .7-17 .4-10.9-.4-17-.2-17 .4 0 1.3 3.3 4.3 4.8 4.3.6 0 1.6.9 2.2 2 2 3.8.3 7.3-6.9 14-3.8 3.6-7.4 7.5-8 8.7-.6 1.2-1.1 5.5-1 9.5v7.3l1.4-5.3c1.9-6.9 3.5-9.3 11.9-18 7-7.1 7.1-7.3 6.9-12.3l-.1-5.1 3 .6c1.7.3 4 .6 5.1.6 2 0 2 .1-.5 2.7-4.6 5-5.6 12.6-1.7 13.6 1.2.3 1.9 0 1.9-.8 0-3.1 10.7-12.1 20-17 8.7-4.5 10.2-4.9 17.8-5.3 9.3-.5 12.3.7 7 2.8-1.8.7-4.3 2.2-5.5 3.3-1.2 1-2.5 1.7-3 1.4-.4-.3-1.9.1-3.3.9-2.3 1.2-1.6 1.3 7.5 1.4 10.9.2 27.5.6 28.8.9 1.9.3.3 2.2-3.3 4.1-3.6 1.9-5.8 2-27.6 2-17.9-.1-24 .2-25.2 1.2-1.3 1.1-.1 1.4 7.4 1.9l8.9.5-10.6.2c-7.5.1-11.1.6-12.5 1.7-1.8 1.3-1.6 1.4 2.6 1.6 2.5.1 7 .3 10 .4 19.1 1 37.7.6 41.8-.9 18.1-6.6 24.8-15.3 14.1-18.5-2.4-.7-5.4-1.8-6.8-2.3-2.5-1-2.4-1.1 2.9-2.9 13.9-4.8 39.6-10.9 52-12.3 2.5-.3 6.5-.8 9-1.1 17.9-2.1 65.1-2.4 141.5-1 23.7.4 77.3.7 119.3.7 41.9-.1 76.2.2 76.2.6 0 .4 6 .7 13.3.7 13.4.1 56.8 1.3 68.7 2 6.4.4 28.5 1 71 2 30.4.7 61 1.6 71.5 2 26.3 1.2 58 3.2 62.5 4 1.4.2 5.4.7 9 1 3.6.3 8.1.7 10 1 1.9.3 5.3.7 7.5 1 11.2 1.4 26.7 3.8 32.5 5.1 23.2 5.2 29.4 6.8 55.7 14.5 3.2 1 19.1 6.8 29.2 10.9 7 2.7 5.6.9-4.6-6-23-15.6-55.2-29-83.2-34.5-9-1.8-31.6-5.5-37.1-6-3.6-.4-7.8-.8-9.5-1.1-14.3-1.9-99.7-2.6-150.5-1.1-14 .4-36.7 1-50.5 1.4-38.5 1.1-176.5.4-211-1.1-3.8-.2-14-.6-22.5-1s-17.3-.9-19.5-1.1c-2.2-.2-6.5-.7-9.5-1-8.5-.8-27.5-2.3-38-3-5.2-.3-12.1-.8-15.2-1-36.9-2.6-104.7-2.6-126.3 0-11.7 1.4-10.9 1.3-29 4.5-19.2 3.5-22.3 4.2-51.7 12.6-1 .3-1.8.2-1.8-.3 0-.7 16.3-6.9 19.5-7.3.3 0 3.5-1.2 7.2-2.6 6.6-2.5 36.7-12.4 38.8-12.8.5-.1 6.2-1.9 12.5-3.9 6.3-2.1 12.4-3.9 13.5-4.2 1.1-.2 7.2-2 13.5-3.8 14-4.2 41.8-11.8 44.5-12.2 1.1-.2 8.3-1.9 16-3.9 27.6-7 88-18.8 107.5-21.1 2.5-.3 5.6-.7 7-1 1.4-.2 4.8-.7 7.5-1 2.8-.3 10.9-1.2 18-2 20.3-2.3 24.1-2.6 40.6-3.3 29.5-1.3 52.3 1 73.6 7.4l8.1 2.4 8.5-3.4c10.5-4.2 14.2-6.2 13.1-6.8-4.6-2.7-29.5-8.5-43.4-10.3-2.5-.3-6.3-.8-8.5-1.1-4.7-.6-47.9-1.2-54.5-.8zM93 480c0 .6-4.5 1-11.6 1-7.4 0-11.3-.4-10.9-1 .4-.6 5.3-1 11.6-1 6.6 0 10.9.4 10.9 1zm5.3.7c-.7.2-1.9.2-2.5 0-.7-.3-.2-.5 1.2-.5s1.9.2 1.3.5zm-30 13c-1.3.2-3.5.2-5 0-1.6-.2-.5-.4 2.2-.4 2.8 0 4 .2 2.8.4zm14.5 0c-2.1.2-5.7.2-8 0-2.4-.2-.7-.4 3.7-.4s6.3.2 4.3.4zm8.2-.3c0 .3-.4.8-1 1.1-.5.3-1 .1-1-.4 0-.6.5-1.1 1-1.1.6 0 1 .2 1 .4z"/><path d="M516.1 392.3c-5.2 2.3-9.6 4.7-9.8 5.4-.2.6 1.3 1.7 3.4 2.3 3.9 1.3 18.5 7.3 28.3 11.7 3 1.4 17.7 8.5 32.6 15.8 14.9 7.3 31.7 15.5 37.2 18.2l10.2 4.9 21.2-.3c11.7-.3 21.4-.6 21.6-.7.3-.3-16.6-8.8-58.3-29.1-31.4-15.3-71.9-32.6-75.9-32.4-.6 0-5.3 1.9-10.5 4.2zm-101.2 2.1c-.2.2-8.5.7-18.4 1.1-19.6.7-20 .7-35.5 2.5-12.8 1.4-13.9 1.5-32 4.5-8 1.3-16.1 2.6-18 2.9-11.6 1.7-44.8 9.6-49.5 11.8-1.4.6-2.5 1.4-2.6 1.7 0 .3-.2 1.6-.5 2.8-.6 3.5 8.9 12.3 19.6 18.1 3.1 1.7 20.7 6.9 25.7 7.6 2.1.4 6.5.8 9.8 1.1 3.3.3 8 .8 10.5 1.1 2.5.3 4.3.4 4 .1-.3-.3-2.5-.8-5-1.2-14.8-2.1-34.2-7.7-41.5-12-4.6-2.7-14.5-11.8-14.5-13.4 0-1.3 3.4-3.2 7.5-4.1 38.3-9.1 66.3-15 80-17 13.8-2 15-2.2 15.7-2.6.4-.2 1 0 1.3.6.5.8 1.1.8 1.9.1 1.6-1.3 10.3-1.8 44.1-2.7 28.2-.7 36.4-2.1 13.4-2.3-7.8-.1-14.5-.4-14.9-.6-.4-.3-.9-.3-1.1-.1zm126.7 33.7c-1.4 1.1-3.1 3-3.7 4.1-1 1.8-.6 1.7 3.5-.7 5.5-3.2 7.7-3 23.6 2.1.8.3 1.6.5 1.8.5.7-.3 11.1 5.5 14 7.7 3.5 2.7 3.4 2.3 2 10.7-.6 3.9 2.8 2.7 5-1.9 3.2-6.4 2.3-8.6-5.6-14-13-8.9-34.4-13.3-40.6-8.5zm-232.8 52.2c-3.8.9-7.8 4.9-7.8 7.7 0 3.3 1.1 4.8 3.1 4.3 1.5-.4 1.8-.2 1.3 1.3-.5 1.7-.4 1.7.8.3 1.2-1.5 4.2-1.6 24.6-1.5 12.7 0 23.3-.2 23.5-.6.1-.4 9-.9 19.7-1 11.4-.2 19.8-.7 20.3-1.3.6-.6 1-.5 1.4.3.4 1 .8 1 1.8.2s30.9-1.3 104.4-1.7c56.7-.4 103-.7 102.9-.8-.7-.6-71-2.9-118.8-3.9-19.5-.4-35.9-1-36.4-1.3-.5-.4-10.6-.7-22.5-.8-40.6-.2-65.1-.8-65.1-1.4 0-.9-49.5-.7-53.2.2zm-255.3 5.9c-1.9 1.7-1.5 1.7 9.4 1.8 9.7 0 11.2-.2 10.2-1.4-.8-1-3.9-1.6-9.4-1.8-6.5-.2-8.5 0-10.2 1.4zm553.3 1.5c.7.3 1.6.2 1.9-.1.4-.3-.2-.6-1.3-.5-1.1 0-1.4.3-.6.6zM380.5 526c-2.2.4-8.5 1.1-14 1.4-11 .8-16.2 1.7-21.6 4-4.7 1.9-9.4 6.6-10.8 10.7l-1.1 3.1 3.2-.6c8.4-1.7 10.4-2.6 10.5-4.7.5-5.7 8-9.2 18.6-8.7l6.9.3-12.9 13c-15.1 15.3-19.7 19.1-26.2 21.6-5.9 2.2-10.8 1.9-15.7-1l-3.6-2.1-3.9 2.2c-2.1 1.2-3.9 2.4-3.9 2.8 0 .3 1.7 1.2 3.8 2 5.1 1.9 18.6 2.1 24.7.3 5-1.4 18.5-9.7 18.5-11.4 0-1.2 23.7-1.2 24.4 0 .3.4.8 3.3 1.2 6.2.4 3 1.1 5.7 1.6 6 .9.6 4.3.5 13.8-.5 1.9-.2 4.9-.4 6.7-.5 2.2-.1 3.6-.8 4.4-2.2 1.1-2.1.9-2.1-2.4-1.5-5.3 1-8.3-.1-9.8-3.7-.7-1.7-1.4-3.8-1.4-4.6-.3-3-1.7-12.6-2.2-15.6-.5-2.8-1-8.6-1.2-14.8-.1-2.9-.6-3.1-7.6-1.7zm-5.4 12.2c0 1.3.2 3.2.5 4.3.2 1.1.7 4.4 1 7.2l.6 5.3h-9.7c-5.8 0-9.5-.4-9.3-1 .7-2.1 14.4-17.9 15.6-17.9.6-.1 1.2.9 1.3 2.1zM27.3 527c-9.8 2.1-16.5 7.4-16.1 12.8.3 4-.1 3.7 11.8 10.2 10.7 5.9 14.4 9.1 13.5 11.9-2 6.5-12.4 8.4-24.4 4.5-6.9-2.3-7.5-2.4-9.8-.9-3.2 2.1-2.6 4.9 1.2 5.3 5.1.7 21.8.7 25.5 0 8.8-1.5 17.1-6.2 19-10.8 1.8-4.3-.1-6.6-9.6-11.9-15.6-8.7-18-11.1-14.6-15 5.1-5.7 21.4-5.3 22.8.6.5 2 1.2 2.4 3.7 2.1 2.5-.2 3.2-1 4.3-4 1.1-3.4 1.1-3.7-.9-4.2-3.9-1.1-22.1-1.5-26.4-.6zm593.2 0c-22.9 4.2-38.2 19.6-32.1 32.5 3.7 7.8 11.8 10.8 28.9 10.9 13.8.1 14.7.5 10.4 5.2-4.2 4.5-12.4 5.2-20.8 1.6-4.3-1.8-4.5-1.8-8.8.1-2.4 1-3.9 2.3-3.5 2.7 2.6 2.5 22.8 3.4 30.9 1.4 4.6-1.1 11.8-4.9 14.1-7.6 3.1-3.3 7.4-10.5 6.7-11.1-.3-.3-.1-1.2.3-1.9.5-.7.9-1.8 1-2.4.1-.5 1.1-3 2.2-5.5l2-4.4-9.1-.5c-13.2-.7-22.9 1.1-28.4 5.3-2.5 1.8-.2 2.6 4 1.3 2.3-.7 7.5-1.4 11.4-1.5l7.2-.2-1 3.3c-.6 1.8-1.3 4-1.6 4.8-.3.8-.8 2.4-1 3.4-.2 1.1-.6 2.2-.9 2.5-.3.3-4.4.5-9.2.5-14.9-.1-21.8-4.8-21.4-14.5.3-8.7 5.9-16 16.1-20.7 10.1-4.7 27.4-3.8 28.7 1.4.3 1.3 1 2.5 1.5 2.5 3.6.5 4.5 0 6.6-3.6l2.2-4-2.2-.8c-3.2-1.3-28.4-1.8-34.2-.7zm-119.7 1.7c-5.1 1.3-5.8 1.8-7.2 5.4-1.5 3.6-1.9 3.9-5.7 3.9-2.3 0-4.7.7-5.5 1.5-1.4 1.3-1 1.5 3.5 1.5 2.8 0 5.1.2 5.1.3 0 .4-3.4 10.5-4.6 13.7-.3.8-.5 1.6-.5 1.7 0 .2-.6 2.1-1.4 4.3-1.3 3.8-1.3 4.1.9 6.7 2 2.3 3.3 2.8 7.8 2.9 5.9.3 18.4-3.3 19.8-5.7 1.6-2.4 0-2.8-4.3-1-6.4 2.7-10.7 3.3-11.3 1.6-.5-1.2.5-5.9 2.3-10.5.7-1.8.5-1.1 2.7-8.3l1.7-5.7h7.7c5.2-.1 8.3-.5 9.6-1.5 1.8-1.4 1.1-1.5-6.8-1.5h-8.8l.7-3.3c.4-1.7.9-4.2 1.2-5.5.6-2.5.7-2.5-6.9-.5zM154.5 537c-1.6.4-7.6 1.8-13.2 3-6.9 1.6-10 2.7-9.7 3.5.4.8 1.9 1.1 4.8.8 2.6-.3 4.6-.1 5 .6.4.6-.3 4.3-1.5 8.3-1.2 4-2.4 7.9-2.5 8.6-.1.8-.6 2.1-1 3-.4.9-.8 1.9-.9 2.2-1.1 4.3-4.3 12.1-5.8 14.2-2.4 3.2-8.6 5.9-11.9 5.2-1.3-.3-3.5-.7-5.1-.9-1.5-.2-3.1-.6-3.5-.9-1.3-.8-7.4 3.3-6.9 4.7.3.8 3.1 1.1 9.5 1 9.2-.2 15-1.6 22-5.2 3.7-2 10.2-7.6 10.2-8.9.1-.4.9-1.7 2-3 1.6-1.9 3.1-2.3 9.2-2.6 7.6-.4 14.9-2.7 22-6.9 5.3-3.1 10.8-8 10.8-9.5 0-.7.4-1.2.9-1.2.8 0 2.2-4.2 2.6-7.5.3-2.4-2-5.5-4.8-6.5-7.3-2.5-16.9-.6-25.9 5.2-4.7 2.9-7.2 3.2-5 .6 1-1.2 2.8-8.9 2.1-8.7-.2 0-1.7.4-3.4.9zm22.1 10.5c.1 5.7-4.5 13.4-10.1 16.9-3 2-12.1 2.7-15.7 1.3-4.1-1.5 2.5-10.6 12.6-17.1 7.6-5 8.9-5.6 11.1-5.3 1.6.2 2 1 2.1 4.2z"/><path d="M67.9 539.5c-4.9 1.8-10 4.5-11.7 6.1-1.1 1.2-1.1 1.4.6 1.4 1 0 2.2-.3 2.6-.7 1-1 9.8-4.3 11.4-4.3.9 0 1.2.9.8 2.7-.8 4.3-1.8 7.7-2.7 8.8-.8 1.1-1.8 4.8-2.6 10.1-.4 2.5 0 3.5 2.4 5.4 2.4 1.9 3.6 2.1 8.7 1.6 5.6-.6 17.6-5.9 17.6-7.8 0-.5.7-.8 1.5-.8 1.1 0 1.4.7 1.1 2.4-1.1 6.3 9.8 8.2 20.4 3.6 5.9-2.6 9.8-5.6 8.7-6.7-.4-.3-2.4.2-4.5 1.2-9 4.3-10.2 4.7-10.8 3-.7-1.8 4.5-18.6 6-19.7.6-.4.8-.8.4-.8s0-1.6.8-3.5l1.4-3.5h-13.9l-1.6 5.4c-2.1 7.1-10.3 15.5-20.2 20.5-6.1 3.1-6.2 2.7-1.4-12.4l3.2-10-2.1-1.7c-2.7-2.2-10.7-2.3-16.1-.3zm153.2-.3c-4.3 1-7.9 2.7-14.3 6.9-9 5.9-11.7 15.3-5.7 20.3 3.9 3.3 6.9 4.1 14.9 4 10.2-.1 25.3-4.2 26.4-7.1.4-.9.5-1.7.4-1.9-.2-.1-3.7.9-7.8 2.3-9.8 3.2-18.2 3.5-20.9.8-1-1.1-2.2-2.9-2.5-4.1-.6-1.9 0-2.1 8.2-3.3 14.4-2 24.5-8 23.4-13.8-.9-4.8-10.7-6.6-22.1-4.1zm9.6 4.4c1.6 4.1-4.1 8.7-12.5 10-5 .8-6.6 0-5.1-2.8 3.5-6.5 15.9-11.6 17.6-7.2zm29.6-3.7c-6.7 2.5-11.3 5.2-11.3 6.8 0 1.7 0 1.7 5.9-1.3 6.1-3 10.5-3.6 10.6-1.4.1.8-.4 3-1.1 4.7-.7 1.8-1.1 3.3-.9 3.3.2 0-.4 2-1.5 4.5s-1.7 4.5-1.5 4.5c.2 0-.4 2-1.5 4.5-1.5 3.4-1.6 4.7-.7 5 1 .3 8.6.1 11.9-.4.6-.1 3-7.1 3.2-9.4.1-.7 7.8-8 12.2-11.6 3.8-3.1 10-5.3 13.6-4.8 3.1.4 4.4 0 7.3-2.3 1.9-1.5 3.2-3 2.8-3.4-1-.9-10.4-.7-14.3.4-2 .5-6.2 2.6-9.4 4.5s-6 3.5-6.2 3.5c-.2 0-.4-1.6-.4-3.5 0-2.9-.5-3.7-2.6-4.5-3.9-1.5-10.3-1.1-16.1.9zm156.9-.8c-4.5 1.3-11.5 5.4-12 6.9-.3.9.1 1.1 1.4.5 7.7-3.1 13.4-4.9 14-4.3.3.4-.4 4-1.7 8-1.2 4-2.4 8-2.7 8.8-.2.8-.5 3.3-.6 5.5-.1 3.8.1 4.1 4 5.4 5.6 2 13.6.2 20.5-4.5 5.6-3.7 7.1-4.2 6.2-1.8-1.1 3.1 1.7 6.3 6.3 7 6.7 1 22.4-4.6 23.2-8.4.3-1.7-.8-1.5-5.6.8-7.7 3.7-9.2 4.1-9.8 2.5-.6-1.5 2.3-11.9 6.2-21.7l2.3-5.9-7.1.3-7 .3-1.2 3.5c-1.5 4.3-1.6 4.8-1.6 5.8 0 .9-6.1 7.3-9.9 10.4-1.2 1-4.7 3.2-7.8 4.9-6.9 3.6-7.5 2.8-4.4-5.6 1.1-3 1.8-5.5 1.6-5.5-.3 0 .2-1.1 1.1-2.5.9-1.4 1.4-2.5 1.1-2.5-.3 0-.2-1.3.3-3 .7-2.5.5-3.2-1.3-4.5-2.4-1.7-10.3-1.9-15.5-.4zm132.1.4c-20.4 5.7-29.8 21.1-17.6 28.6 4 2.5 13.4 3.3 20.4 1.8 6.8-1.5 16-6.2 20.2-10.3 3.5-3.3 6.2-8.4 6.1-11.1-.2-2.9-2.7-6.6-5.6-8.1-4.5-2.3-16.8-2.8-23.5-.9zm13.3 4.2c2.4 2.9 1.3 11.4-2 16.2-5.1 7.3-15.3 10.1-18.4 5-4.6-7.2.2-19.1 9.1-22.9 3.2-1.4 9.6-.5 11.3 1.7zm129.4-5c-13.9 2.5-26.6 10.9-29.7 19.9-2.4 6.9 2.3 12.4 10.7 12.4 4.3 0 13.1-3 17.5-5.9 6.5-4.4 6.7-4.5 6.5-2.5-.7 6 1.6 8.4 8 8.4 4.8 0 15.6-4 19.2-7.1 4.2-3.6 2-3.8-4.8-.5-7.3 3.5-8.8 3.6-9 .6-.1-1.4.1-3 .4-3.5.4-.6.7-1.6.8-2.3.2-.8.6-2.1 1-3 .9-2.1.9-2 1.9-5.5.4-1.6 1.6-4.5 2.5-6.5 1-2 1.6-4 1.3-4.4-.4-.8-21.9-.9-26.3-.1zm9.7 3.9c2.1.6 2.2.8.8 4.1-3.1 7.4-21.5 20.8-25.3 18.4-4.8-3 2-18.1 9.8-21.8 2.7-1.3 11.1-1.6 14.7-.7zm44.3-3c-6.7 2.4-9.9 5-9.6 7.8.4 3.5 1.3 4.4 8.7 9.2 3.8 2.4 6.9 5 6.9 5.8 0 4.3-9.4 5.4-16.7 2-3.2-1.6-3.5-1.6-7.6 1.2l-4.2 2.8 5.5 1.2c11.1 2.5 25.7.1 31.4-5.1 4.7-4.3 3.9-5.7-8.3-14.7-7-5.2-5.9-8.8 2.6-8.8 4.3 0 6.3 1.4 6.3 4.3 0 1.5.6 1.8 3.2 1.5 2.6-.2 3.3-.9 4.4-4 1.2-3.4 1.1-3.6-1.1-4-5.7-1.1-17.3-.7-21.5.8zm70-.7c-5.6 1.8-13.7 6.4-13.7 7.7 0 1.7-.6 1.9 5.6-1.1 2.9-1.4 6.6-2.8 8.2-3.2 3.9-.7 3.8.6-.7 13.2-1.9 5.5-3.7 11.2-4 12.7-.5 2.7-.4 2.8 3.8 2.7 8.1-.2 8.5-.5 10.3-6.1 3.1-9.5 18.5-21.5 26.3-20.5 2.8.4 4.6-.1 7.4-2 2.1-1.4 3.5-2.9 3.2-3.4-1-1.6-11.2-.9-16.7 1.1-2.9 1.1-6.8 3.1-8.7 4.5-4.3 3.2-4.7 3.1-4.8-.6 0-1.8-.5-3.6-1.1-4.2-1.3-1.3-11.8-1.9-15.1-.8zm56 .5c-6.9 2.6-8.5 3.4-10.7 5.3-3.4 3-1.8 3.3 3.7.6 6.6-3.1 11-4 11-2.1 0 1.2-3 11.1-4.7 15.8-.6 1.5-.9 2.4-1.3 4.5-1 4.7 4.5 8.1 11.6 7.1 5-.6 14.4-4.4 14.4-5.7 0-.5.7-.9 1.5-.9s1.5-.5 1.5-1c0-.6.7-1 1.5-1s1.4.8 1.3 1.7c-.4 5.6 3.1 7.9 10.6 7 7.7-1 18.6-6.4 18.6-9.3 0-.7-2.7.1-6.7 2.1-3.7 1.8-7.3 3.1-8 2.8-1.4-.6-1.2-4.3.6-8.6.6-1.5 1.4-4 1.7-5.5.4-1.5 1.1-3.3 1.7-4 .5-.6.6-1.2.2-1.2-.4 0-.3-.6.2-1.3.6-.6 1.5-2.7 2.1-4.5l1.1-3.2h-13.8l-1.6 5.5c-.8 3-2 5.5-2.6 5.5-.6 0-.8.4-.5.8.7 1.1-8.4 8.9-14.9 12.8-7.3 4.4-8.9 2.9-5.5-5.1 2.4-5.5 4.8-14.6 4.3-16.4-.3-1-1.5-2.2-2.6-2.5-3.7-1-11-.6-14.7.8zm-92.8 22.2l-5.3 2.4 3.3 2.8c1.8 1.5 3.4 3 3.6 3.4.4.8 12.2-3.3 12.2-4.3 0-.9-6.9-6.9-7.8-6.8-.4 0-3.1 1.2-6 2.5z"/></svg>